<svg xmlns="http://www.w3.org/2000/svg" viewBox="0 0 512 512" style="height: 512px; width: 512px;"><defs><filter id="shadow-2" height="300%" width="300%" x="-100%" y="-100%"><feFlood flood-color="rgba(0, 0, 0, 1)" result="flood"></feFlood><feComposite in="flood" in2="SourceGraphic" operator="out" result="composite"></feComposite><feGaussianBlur in="composite" stdDeviation="10" result="blur"></feGaussianBlur><feOffset dx="0" dy="0" result="offset"></feOffset><feComposite in="offset" in2="SourceGraphic" operator="atop"></feComposite></filter><filter id="shadow-3" height="300%" width="300%" x="-100%" y="-100%"><feFlood flood-color="rgba(0, 0, 0, 1)" result="flood"></feFlood><feComposite in="flood" in2="SourceGraphic" operator="out" result="composite"></feComposite><feGaussianBlur in="composite" stdDeviation="10" result="blur"></feGaussianBlur><feOffset dx="0" dy="0" result="offset"></feOffset><feComposite in="offset" in2="SourceGraphic" operator="atop"></feComposite></filter><filter id="shadow-4" height="300%" width="300%" x="-100%" y="-100%"><feFlood flood-color="rgba(0, 0, 0, 1)" result="flood"></feFlood><feComposite in="flood" in2="SourceGraphic" operator="out" result="composite"></feComposite><feGaussianBlur in="composite" stdDeviation="10" result="blur"></feGaussianBlur><feOffset dx="0" dy="0" result="offset"></feOffset><feComposite in="offset" in2="SourceGraphic" operator="atop"></feComposite></filter><filter id="shadow-5" height="300%" width="300%" x="-100%" y="-100%"><feFlood flood-color="rgba(0, 0, 0, 1)" result="flood"></feFlood><feComposite in="flood" in2="SourceGraphic" operator="out" result="composite"></feComposite><feGaussianBlur in="composite" stdDeviation="10" result="blur"></feGaussianBlur><feOffset dx="0" dy="0" result="offset"></feOffset><feComposite in="offset" in2="SourceGraphic" operator="atop"></feComposite></filter><filter id="shadow-6" height="300%" width="300%" x="-100%" y="-100%"><feFlood flood-color="rgba(0, 0, 0, 1)" result="flood"></feFlood><feComposite in="flood" in2="SourceGraphic" operator="out" result="composite"></feComposite><feGaussianBlur in="composite" stdDeviation="10" result="blur"></feGaussianBlur><feOffset dx="0" dy="0" result="offset"></feOffset><feComposite in="offset" in2="SourceGraphic" operator="atop"></feComposite></filter><filter id="shadow-7" height="300%" width="300%" x="-100%" y="-100%"><feFlood flood-color="rgba(0, 0, 0, 1)" result="flood"></feFlood><feComposite in="flood" in2="SourceGraphic" operator="out" result="composite"></feComposite><feGaussianBlur in="composite" stdDeviation="10" result="blur"></feGaussianBlur><feOffset dx="0" dy="0" result="offset"></feOffset><feComposite in="offset" in2="SourceGraphic" operator="atop"></feComposite></filter></defs><circle cx="256" cy="256" r="256" fill="#afc5bd" fill-opacity="1"></circle><g class="" transform="translate(15,-15)" style=""><g><path d="M266 51.727C226.68 51.727 195 83.407 195 122.727C195 162.046 226.68 193.729 266 193.729C305.32 193.729 337 162.046 337 122.727C337 83.407 305.32 51.727 266 51.727Z" class="" fill="#808080" fill-opacity="0.75" filter="url(#shadow-2)"></path><path d="M122 83.727C91.517 83.727 67 108.244 67 138.727C67 169.209 91.517 193.729 122 193.729C152.483 193.729 177 169.209 177 138.727C177 108.244 152.483 83.727 122 83.727Z" class="" fill="#808080" fill-opacity="0.75" filter="url(#shadow-3)"></path><path d="M99 211.727L99 321.729L337 321.729L337 211.727Z" class="selected" fill="#808080" fill-opacity="0.75" filter="url(#shadow-4)"></path><path d="M449 216.375L355 256.66L355 276.793L449 317.078Z" class="" fill="#808080" fill-opacity="0.75" filter="url(#shadow-5)"></path><path d="M63 218.727L63 250.727L81 250.727L81 218.727Z" class="" fill="#808080" fill-opacity="0.75" filter="url(#shadow-6)"></path><path d="M176 339.729L176 357.727L189.012 357.727L137.889 494.002L157.111 494.002L208.618 357.727L209 494.002L227 494.002L227.382 357.727L278.889 494.002L298.111 494.002L246.988 357.727L260 357.727L260 339.729C231.997 339.726 204.003 339.729 176 339.729Z" class="" fill="#808080" fill-opacity="0.75" filter="url(#shadow-7)"></path></g></g></svg>